<svg width="387" height="387" xmlns="http://www.w3.org/2000/svg" xmlns:xlink="http://www.w3.org/1999/xlink" overflow="hidden"><defs><clipPath id="clip0"><rect x="1533" y="670" width="387" height="387"/></clipPath><clipPath id="clip1"><path d="M1533 863.5C1533 756.633 1619.63 670 1726.5 670 1833.37 670 1920 756.633 1920 863.5 1920 970.367 1833.37 1057 1726.5 1057 1619.63 1057 1533 970.367 1533 863.5Z" fill-rule="evenodd" clip-rule="evenodd"/></clipPath></defs><g clip-path="url(#clip0)" transform="translate(-1533 -670)"><g clip-path="url(#clip1)"><path d="M1533 670 1920 670 1920 1057 1533 1057Z" fill="#FFFFFF"/><path d="M1617.89 808.755 1617.89 918.21" stroke="#AA6BFD" stroke-width="5.46079" stroke-linecap="round" stroke-miterlimit="8" fill="none" fill-rule="evenodd"/><path d="M1709.29 803.282 1709.29 923.684" stroke="#AA6BFD" stroke-width="5.46079" stroke-linecap="round" stroke-miterlimit="8" fill="none" fill-rule="evenodd"/><path d="M1634.04 797.809 1634.04 929.157" stroke="#AA6BFD" stroke-width="5.46079" stroke-linecap="round" stroke-miterlimit="8" fill="none" fill-rule="evenodd"/><path d="M1835.78 786.798 1835.78 940.036" stroke="#AA6BFD" stroke-width="5.46079" stroke-linecap="round" stroke-miterlimit="8" fill="none" fill-rule="evenodd"/><path d="M1679.26 764.972 1679.26 961.993" stroke="#AA6BFD" stroke-width="5.46079" stroke-linecap="round" stroke-miterlimit="8" fill="none" fill-rule="evenodd"/><path d="M1821.5 781.391 1821.5 945.575" stroke="#AA6BFD" stroke-width="5.46079" stroke-linecap="round" stroke-miterlimit="8" fill="none" fill-rule="evenodd"/><path d="M1649.08 814.228 1649.08 912.739" stroke="#AA6BFD" stroke-width="5.46079" stroke-linecap="round" stroke-miterlimit="8" fill="none" fill-rule="evenodd"/><path d="M1602.96 825.173 1602.96 901.792" stroke="#AA6BFD" stroke-width="5.46079" stroke-linecap="round" stroke-miterlimit="8" fill="none" fill-rule="evenodd"/><path d="M1662.73 809.812 1662.73 919.269" stroke="#AA6BFD" stroke-width="5.46079" stroke-linecap="round" stroke-miterlimit="8" fill="none" fill-rule="evenodd"/><path d="M1695.68 786.864 1695.68 940.101" stroke="#AA6BFD" stroke-width="5.46079" stroke-linecap="round" stroke-miterlimit="8" fill="none" fill-rule="evenodd"/><path d="M1740.66 814.228 1740.66 912.739" stroke="#AA6BFD" stroke-width="5.46079" stroke-linecap="round" stroke-miterlimit="8" fill="none" fill-rule="evenodd"/><path d="M1755.76 797.809 1755.76 929.157" stroke="#AA6BFD" stroke-width="5.46079" stroke-linecap="round" stroke-miterlimit="8" fill="none" fill-rule="evenodd"/><path d="M1726.46 827.847 1726.46 904.467" stroke="#AA6BFD" stroke-width="5.46079" stroke-linecap="round" stroke-miterlimit="8" fill="none" fill-rule="evenodd"/><path d="M1772.48 814.228 1772.48 912.739" stroke="#AA6BFD" stroke-width="5.46079" stroke-linecap="round" stroke-miterlimit="8" fill="none" fill-rule="evenodd"/><path d="M1789.3 825.173 1789.3 901.792" stroke="#AA6BFD" stroke-width="5.46079" stroke-linecap="round" stroke-miterlimit="8" fill="none" fill-rule="evenodd"/><path d="M1808.39 797.809 1808.39 929.157" stroke="#AA6BFD" stroke-width="5.46079" stroke-linecap="round" stroke-miterlimit="8" fill="none" fill-rule="evenodd"/><path d="M1851.49 770.38 1851.49 956.456" stroke="#AA6BFD" stroke-width="5.46079" stroke-linecap="round" stroke-miterlimit="8" fill="none" fill-rule="evenodd"/><path d="M1865.77 797.711 1865.77 929.059" stroke="#AA6BFD" stroke-width="5.46079" stroke-linecap="round" stroke-miterlimit="8" fill="none" fill-rule="evenodd"/><path d="M1880.87 825.173 1880.87 901.792" stroke="#AA6BFD" stroke-width="5.46079" stroke-linecap="round" stroke-miterlimit="8" fill="none" fill-rule="evenodd"/><path d="M1895.54 836.021 1895.54 890.748" stroke="#AA6BFD" stroke-width="5.46079" stroke-linecap="round" stroke-miterlimit="8" fill="none" fill-rule="evenodd"/><path d="M1587.77 814.129 1587.77 912.639" stroke="#AA6BFD" stroke-width="5.46079" stroke-linecap="round" stroke-miterlimit="8" fill="none" fill-rule="evenodd"/><path d="M1572.46 833.284 1572.46 893.485" stroke="#AA6BFD" stroke-width="5.46079" stroke-linecap="round" stroke-miterlimit="8" fill="none" fill-rule="evenodd"/><path d="M1558.57 841.592 1558.57 885.375" stroke="#AA6BFD" stroke-width="5.46079" stroke-linecap="round" stroke-miterlimit="8" fill="none" fill-rule="evenodd"/><path d="M1690.8 784.997C1689.88 788.744 1688.83 792.696 1687.64 796.854 1686.45 801.012 1685.29 804.896 1684.15 808.505 1683 812.115 1682.07 815.016 1681.34 817.21L1659.95 876.289 1722.05 876.289 1700.94 817.21C1700.3 815.199 1699.32 812.184 1697.99 808.163 1696.67 804.142 1695.34 799.984 1694.02 795.689 1692.69 791.394 1691.62 787.83 1690.8 784.997ZM1676.68 759.09 1705.46 759.09 1781.54 960.315 1752.07 960.315 1729.86 900.689 1651.32 900.689 1629.39 960.315 1600.19 960.315Z" stroke="#0B017A" stroke-width="6.14285" stroke-linejoin="round" stroke-miterlimit="10" fill="#0B017A" fill-rule="evenodd"/><path d="M1705.82 759.15 1856.19 759.15 1856.19 783.5 1795.24 783.5 1795.24 960.283 1766.9 960.283 1766.9 783.5 1705.82 783.5Z" stroke="#0B017A" stroke-width="6.14285" stroke-linejoin="round" stroke-miterlimit="10" fill="#0B017A" fill-rule="evenodd"/></g></g></svg>