<svg width="4536" height="720" xmlns="http://www.w3.org/2000/svg" xmlns:xlink="http://www.w3.org/1999/xlink" overflow="hidden"><defs><clipPath id="clip0"><rect x="0" y="0" width="4536" height="720"/></clipPath><clipPath id="clip1"><rect x="0" y="-79" width="879" height="879"/></clipPath><clipPath id="clip2"><rect x="0" y="-79" width="879" height="879"/></clipPath><clipPath id="clip3"><rect x="0" y="-79" width="879" height="879"/></clipPath><clipPath id="clip4"><rect x="0" y="-79" width="879" height="879"/></clipPath></defs><g clip-path="url(#clip0)"><rect x="0" y="0" width="4536" height="719.921" fill="#FFFFFF" fill-opacity="0"/><text font-family="Open Sans,Open Sans_MSFontService,sans-serif" font-weight="400" font-size="400" transform="matrix(1 0 0 0.99989 954.095 495)">AusspracheTrainer</text><g clip-path="url(#clip1)"><g clip-path="url(#clip2)"><g clip-path="url(#clip3)"><g clip-path="url(#clip4)"><path d="M192.783 315.122 192.783 563.702" stroke="#AA6BFD" stroke-width="12.4018" stroke-linecap="round" stroke-miterlimit="8" fill="none" fill-rule="evenodd" transform="matrix(1.00011 0 0 1 0 -78.9913)"/><path d="M400.356 302.692 400.356 576.133" stroke="#AA6BFD" stroke-width="12.4018" stroke-linecap="round" stroke-miterlimit="8" fill="none" fill-rule="evenodd" transform="matrix(1.00011 0 0 1 0 -78.9913)"/><path d="M229.47 290.264 229.47 588.563" stroke="#AA6BFD" stroke-width="12.4018" stroke-linecap="round" stroke-miterlimit="8" fill="none" fill-rule="evenodd" transform="matrix(1.00011 0 0 1 0 -78.9913)"/><path d="M687.637 265.256 687.637 613.27" stroke="#AA6BFD" stroke-width="12.4018" stroke-linecap="round" stroke-miterlimit="8" fill="none" fill-rule="evenodd" transform="matrix(1.00011 0 0 1 0 -78.9913)"/><path d="M332.174 215.689 332.174 663.135" stroke="#AA6BFD" stroke-width="12.4018" stroke-linecap="round" stroke-miterlimit="8" fill="none" fill-rule="evenodd" transform="matrix(1.00011 0 0 1 0 -78.9913)"/><path d="M655.211 252.976 655.211 625.849" stroke="#AA6BFD" stroke-width="12.4018" stroke-linecap="round" stroke-miterlimit="8" fill="none" fill-rule="evenodd" transform="matrix(1.00011 0 0 1 0 -78.9913)"/><path d="M263.635 327.551 263.635 551.277" stroke="#AA6BFD" stroke-width="12.4018" stroke-linecap="round" stroke-miterlimit="8" fill="none" fill-rule="evenodd" transform="matrix(1.00011 0 0 1 0 -78.9913)"/><path d="M158.874 352.409 158.874 526.416" stroke="#AA6BFD" stroke-width="12.4018" stroke-linecap="round" stroke-miterlimit="8" fill="none" fill-rule="evenodd" transform="matrix(1.00011 0 0 1 0 -78.9913)"/><path d="M294.614 317.523 294.614 566.107" stroke="#AA6BFD" stroke-width="12.4018" stroke-linecap="round" stroke-miterlimit="8" fill="none" fill-rule="evenodd" transform="matrix(1.00011 0 0 1 0 -78.9913)"/><path d="M369.462 265.405 369.462 613.419" stroke="#AA6BFD" stroke-width="12.4018" stroke-linecap="round" stroke-miterlimit="8" fill="none" fill-rule="evenodd" transform="matrix(1.00011 0 0 1 0 -78.9913)"/><path d="M471.613 327.551 471.613 551.277" stroke="#AA6BFD" stroke-width="12.4018" stroke-linecap="round" stroke-miterlimit="8" fill="none" fill-rule="evenodd" transform="matrix(1.00011 0 0 1 0 -78.9913)"/><path d="M505.909 290.264 505.909 588.563" stroke="#AA6BFD" stroke-width="12.4018" stroke-linecap="round" stroke-miterlimit="8" fill="none" fill-rule="evenodd" transform="matrix(1.00011 0 0 1 0 -78.9913)"/><path d="M439.35 358.481 439.35 532.49" stroke="#AA6BFD" stroke-width="12.4018" stroke-linecap="round" stroke-miterlimit="8" fill="none" fill-rule="evenodd" transform="matrix(1.00011 0 0 1 0 -78.9913)"/><path d="M543.864 327.551 543.864 551.277" stroke="#AA6BFD" stroke-width="12.4018" stroke-linecap="round" stroke-miterlimit="8" fill="none" fill-rule="evenodd" transform="matrix(1.00011 0 0 1 0 -78.9913)"/><path d="M582.066 352.409 582.066 526.416" stroke="#AA6BFD" stroke-width="12.4018" stroke-linecap="round" stroke-miterlimit="8" fill="none" fill-rule="evenodd" transform="matrix(1.00011 0 0 1 0 -78.9913)"/><path d="M625.435 290.263 625.435 588.563" stroke="#AA6BFD" stroke-width="12.4018" stroke-linecap="round" stroke-miterlimit="8" fill="none" fill-rule="evenodd" transform="matrix(1.00011 0 0 1 0 -78.9913)"/><path d="M723.323 227.969 723.323 650.56" stroke="#AA6BFD" stroke-width="12.4018" stroke-linecap="round" stroke-miterlimit="8" fill="none" fill-rule="evenodd" transform="matrix(1.00011 0 0 1 0 -78.9913)"/><path d="M755.754 290.04 755.754 588.34" stroke="#AA6BFD" stroke-width="12.4018" stroke-linecap="round" stroke-miterlimit="8" fill="none" fill-rule="evenodd" transform="matrix(1.00011 0 0 1 0 -78.9913)"/><path d="M790.046 352.409 790.046 526.416" stroke="#AA6BFD" stroke-width="12.4018" stroke-linecap="round" stroke-miterlimit="8" fill="none" fill-rule="evenodd" transform="matrix(1.00011 0 0 1 0 -78.9913)"/><path d="M823.351 377.044 823.351 501.333" stroke="#AA6BFD" stroke-width="12.4018" stroke-linecap="round" stroke-miterlimit="8" fill="none" fill-rule="evenodd" transform="matrix(1.00011 0 0 1 0 -78.9913)"/><path d="M124.397 327.327 124.397 551.049" stroke="#AA6BFD" stroke-width="12.4018" stroke-linecap="round" stroke-miterlimit="8" fill="none" fill-rule="evenodd" transform="matrix(1.00011 0 0 1 0 -78.9913)"/><path d="M89.6221 370.829 89.6221 507.55" stroke="#AA6BFD" stroke-width="12.4018" stroke-linecap="round" stroke-miterlimit="8" fill="none" fill-rule="evenodd" transform="matrix(1.00011 0 0 1 0 -78.9913)"/><path d="M58.0671 389.696 58.0671 489.13" stroke="#AA6BFD" stroke-width="12.4018" stroke-linecap="round" stroke-miterlimit="8" fill="none" fill-rule="evenodd" transform="matrix(1.00011 0 0 1 0 -78.9913)"/><path d="M358.364 261.167C356.288 269.675 353.902 278.651 351.204 288.095 348.506 297.538 345.86 306.358 343.266 314.555 340.671 322.753 338.544 329.342 336.884 334.323L288.32 468.497 429.341 468.497 381.4 334.323C379.947 329.757 377.717 322.909 374.707 313.777 371.698 304.646 368.689 295.203 365.68 285.448 362.67 275.694 360.232 267.6 358.364 261.167ZM326.3 202.33 391.674 202.33 564.446 659.326 497.515 659.326 447.086 523.91 268.708 523.91 218.899 659.326 152.591 659.326Z" stroke="#0B017A" stroke-width="13.9508" stroke-linejoin="round" stroke-miterlimit="10" fill="#0B017A" fill-rule="evenodd" transform="matrix(1.00011 0 0 1 0 -78.9913)"/><path d="M392.484 202.465 733.982 202.465 733.982 257.767 595.571 257.767 595.571 659.252 531.206 659.252 531.206 257.767 392.484 257.767Z" stroke="#0B017A" stroke-width="13.9508" stroke-linejoin="round" stroke-miterlimit="10" fill="#0B017A" fill-rule="evenodd" transform="matrix(1.00011 0 0 1 0 -78.9913)"/></g></g></g></g></g></svg>