<svg width="1890" height="1890" xmlns="http://www.w3.org/2000/svg" xmlns:xlink="http://www.w3.org/1999/xlink" overflow="hidden"><defs><clipPath id="clip0"><rect x="0" y="0" width="1890" height="1890"/></clipPath></defs><g clip-path="url(#clip0)"><rect x="0" y="0" width="1890" height="1890" fill="#FFFFFF"/><path d="M414.561 677.64 414.561 1212.19" stroke="#AA6BFD" stroke-width="26.669" stroke-linecap="round" stroke-miterlimit="8" fill="none" fill-rule="evenodd"/><path d="M860.928 650.912 860.928 1238.92" stroke="#AA6BFD" stroke-width="26.669" stroke-linecap="round" stroke-miterlimit="8" fill="none" fill-rule="evenodd"/><path d="M493.454 624.185 493.454 1265.65" stroke="#AA6BFD" stroke-width="26.669" stroke-linecap="round" stroke-miterlimit="8" fill="none" fill-rule="evenodd"/><path d="M1478.7 570.409 1478.7 1318.78" stroke="#AA6BFD" stroke-width="26.669" stroke-linecap="round" stroke-miterlimit="8" fill="none" fill-rule="evenodd"/><path d="M714.31 463.819 714.31 1426.01" stroke="#AA6BFD" stroke-width="26.669" stroke-linecap="round" stroke-miterlimit="8" fill="none" fill-rule="evenodd"/><path d="M1408.97 544.001 1408.97 1345.83" stroke="#AA6BFD" stroke-width="26.669" stroke-linecap="round" stroke-miterlimit="8" fill="none" fill-rule="evenodd"/><path d="M566.923 704.368 566.923 1185.47" stroke="#AA6BFD" stroke-width="26.669" stroke-linecap="round" stroke-miterlimit="8" fill="none" fill-rule="evenodd"/><path d="M341.644 757.823 341.644 1132.01" stroke="#AA6BFD" stroke-width="26.669" stroke-linecap="round" stroke-miterlimit="8" fill="none" fill-rule="evenodd"/><path d="M633.541 682.803 633.541 1217.36" stroke="#AA6BFD" stroke-width="26.669" stroke-linecap="round" stroke-miterlimit="8" fill="none" fill-rule="evenodd"/><path d="M794.493 570.729 794.493 1319.1" stroke="#AA6BFD" stroke-width="26.669" stroke-linecap="round" stroke-miterlimit="8" fill="none" fill-rule="evenodd"/><path d="M1014.16 704.368 1014.16 1185.47" stroke="#AA6BFD" stroke-width="26.669" stroke-linecap="round" stroke-miterlimit="8" fill="none" fill-rule="evenodd"/><path d="M1087.91 624.185 1087.91 1265.65" stroke="#AA6BFD" stroke-width="26.669" stroke-linecap="round" stroke-miterlimit="8" fill="none" fill-rule="evenodd"/><path d="M944.781 770.88 944.781 1145.07" stroke="#AA6BFD" stroke-width="26.669" stroke-linecap="round" stroke-miterlimit="8" fill="none" fill-rule="evenodd"/><path d="M1169.53 704.368 1169.53 1185.47" stroke="#AA6BFD" stroke-width="26.669" stroke-linecap="round" stroke-miterlimit="8" fill="none" fill-rule="evenodd"/><path d="M1251.68 757.823 1251.68 1132.01" stroke="#AA6BFD" stroke-width="26.669" stroke-linecap="round" stroke-miterlimit="8" fill="none" fill-rule="evenodd"/><path d="M1344.94 624.184 1344.94 1265.65" stroke="#AA6BFD" stroke-width="26.669" stroke-linecap="round" stroke-miterlimit="8" fill="none" fill-rule="evenodd"/><path d="M1555.44 490.226 1555.44 1398.97" stroke="#AA6BFD" stroke-width="26.669" stroke-linecap="round" stroke-miterlimit="8" fill="none" fill-rule="evenodd"/><path d="M1625.18 623.705 1625.18 1265.17" stroke="#AA6BFD" stroke-width="26.669" stroke-linecap="round" stroke-miterlimit="8" fill="none" fill-rule="evenodd"/><path d="M1698.92 757.823 1698.92 1132.01" stroke="#AA6BFD" stroke-width="26.669" stroke-linecap="round" stroke-miterlimit="8" fill="none" fill-rule="evenodd"/><path d="M1770.54 810.798 1770.54 1078.07" stroke="#AA6BFD" stroke-width="26.669" stroke-linecap="round" stroke-miterlimit="8" fill="none" fill-rule="evenodd"/><path d="M267.504 703.887 267.504 1184.98" stroke="#AA6BFD" stroke-width="26.669" stroke-linecap="round" stroke-miterlimit="8" fill="none" fill-rule="evenodd"/><path d="M192.724 797.434 192.724 1091.44" stroke="#AA6BFD" stroke-width="26.669" stroke-linecap="round" stroke-miterlimit="8" fill="none" fill-rule="evenodd"/><path d="M124.868 838.006 124.868 1051.83" stroke="#AA6BFD" stroke-width="26.669" stroke-linecap="round" stroke-miterlimit="8" fill="none" fill-rule="evenodd"/><path d="M770.628 561.615C766.165 579.912 761.033 599.214 755.231 619.521 749.43 639.827 743.739 658.794 738.161 676.422 732.582 694.051 728.008 708.22 724.437 718.931L620.006 1007.46 923.259 1007.46 820.166 718.931C817.042 709.113 812.245 694.385 805.773 674.749 799.302 655.112 792.831 634.806 786.36 613.83 779.889 592.855 774.645 575.449 770.628 561.615ZM701.677 435.092 842.258 435.092 1213.79 1417.82 1069.86 1417.82 961.417 1126.62 577.831 1126.62 470.722 1417.82 328.133 1417.82Z" stroke="#0B017A" stroke-width="30" stroke-linejoin="round" stroke-miterlimit="10" fill="#0B017A" fill-rule="evenodd"/><text fill="#000000" fill-opacity="0" font-family="Arial,Arial_MSFontService,sans-serif" font-size="982.729" x="328.133" y="1294.98">A</text><path d="M844 435.383 1578.36 435.383 1578.36 554.305 1280.72 554.305 1280.72 1417.66 1142.31 1417.66 1142.31 554.305 844 554.305Z" stroke="#0B017A" stroke-width="30" stroke-linejoin="round" stroke-miterlimit="10" fill="#0B017A" fill-rule="evenodd"/><text fill="#000000" fill-opacity="0" font-family="Arial,Arial_MSFontService,sans-serif" font-size="982.281" x="844" y="1294.88">T</text></g></svg>