<svg width="96" height="96" xmlns="http://www.w3.org/2000/svg" xmlns:xlink="http://www.w3.org/1999/xlink" overflow="hidden"><defs><clipPath id="clip0"><rect x="64" y="318" width="96" height="96"/></clipPath></defs><g clip-path="url(#clip0)" transform="translate(-64 -318)"><path d="M138.613 340.357 129.973 340.357 121.586 331.97 112 336.762 100.018 334.366 95.225 340.357 85.387 340.357 77 349.996 147 350 138.613 340.357Z" fill="#7E20FC"/><path d="M157 392 130.717 392C132.65 389.657 132.318 386.19 129.975 384.257 127.632 382.324 124.165 382.657 122.232 385 120.555 387.032 120.555 389.968 122.232 392L100.743 392C102.676 389.657 102.343 386.19 99.9996 384.257 97.6562 382.325 94.1898 382.658 92.257 385.001 90.581 387.033 90.581 389.968 92.257 392L66 392 66 396 71 396 71 399 80 399 80 396 89 396 89 399 98 399 98 396 107 396 107 399 116 399 116 396 125 396 125 399 134 399 134 396 143 396 143 399 152 399 152 396 157 396Z" fill="#7E20FC"/><path d="M86.263 388 88.025 388C88.2941 383.319 92.3067 379.743 96.9873 380.012 101.292 380.26 104.728 383.695 104.975 388L118 388C118.274 383.32 122.29 379.747 126.971 380.021 131.268 380.273 134.698 383.702 134.949 388L136.712 388 148.08 361 151 361 151 354 72 354 72 361 74.9 361Z" fill="#7E20FC"/></g></svg>