<svg width="96" height="96" xmlns="http://www.w3.org/2000/svg" xmlns:xlink="http://www.w3.org/1999/xlink" overflow="hidden"><defs><clipPath id="clip0"><rect x="112" y="459" width="96" height="96"/></clipPath></defs><g clip-path="url(#clip0)" transform="translate(-112 -459)"><path d="M196 538 196 527 192.011 527 192.011 500 194.575 498.965C195.415 498.626 195.922 497.764 195.811 496.865L194.29 484.57C194.162 483.529 193.762 482.539 193.132 481.7L185.691 471.8C185.147 471.076 184.183 470.808 183.343 471.147L175.5 474.314C174.48 474.73 173.988 475.892 174.4 476.914L178.291 486.55 138 503.239 138 501 122 501 122 517 124 517 124 538 116 538 116 544 204 544 204 538ZM162.5 499.584 180.526 492.118 184.126 501.027C184.542 502.047 185.704 502.539 186.726 502.127L188.01 501.609 188.01 527 184 527 184 538 166.8 538ZM159.864 530 152.38 530 152.827 526 159.417 526ZM153.274 522 153.726 517.955 158.517 517.955 158.97 522ZM158.074 513.955 154.174 513.955 154.615 510 157.628 510ZM155.062 506 155.453 502.5 156.731 501.97 157.181 506ZM151.932 534 160.311 534 160.758 538 151.485 538ZM149.122 505.126 145.448 538 136 538 136 517 138 517 138 509.733ZM128 517 132 517 132 538 128 538Z" fill="#7E20FC"/></g></svg>