<?xml version="1.0" encoding="UTF-8" standalone="no" ?>
<!DOCTYPE svg PUBLIC "-//W3C//DTD SVG 1.1//EN" "http://www.w3.org/Graphics/SVG/1.1/DTD/svg11.dtd">
<svg xmlns="http://www.w3.org/2000/svg" xmlns:xlink="http://www.w3.org/1999/xlink" version="1.1" width="500" height="200" viewBox="0 0 500 200" xml:space="preserve">
<desc>Created with Fabric.js 4.6.0</desc>
<defs>
</defs>
<g transform="matrix(1.35 0 0 1 148.27 231.53)" id="PTNyS9A0a4LWcuqCBWPqB"  >
<path style="stroke: rgb(60,141,170); stroke-width: 0; stroke-dasharray: none; stroke-linecap: butt; stroke-dashoffset: 0; stroke-linejoin: miter; stroke-miterlimit: 4; fill: rgb(170,107,253); fill-rule: nonzero; opacity: 1;" vector-effect="non-scaling-stroke"  transform=" translate(0, 0)" d="M 0 -206.87985 C 114.19768 -206.87985 206.87985 -114.19768 206.87985 0 C 206.87985 114.19768 114.19768 206.87985 0 206.87985 C -114.19768 206.87985 -206.87985 114.19768 -206.87985 0 C -206.87985 -114.19768 -114.19768 -206.87985 0 -206.87985 z" stroke-linecap="round" />
</g>
<g transform="matrix(1.11 0 0 1 427.1 156.19)" id="QAwVh38IPAMN3BQDseV2Z"  >
<path style="stroke: rgb(139,181,127); stroke-width: 0; stroke-dasharray: none; stroke-linecap: butt; stroke-dashoffset: 0; stroke-linejoin: miter; stroke-miterlimit: 4; fill: rgb(126,32,252); fill-rule: nonzero; opacity: 1;" vector-effect="non-scaling-stroke"  transform=" translate(0, 0)" d="M 0 -155.7655 C 85.98256 -155.7655 155.7655 -85.98255 155.7655 0 C 155.7655 85.98256 85.98255 155.7655 0 155.7655 C -85.98256 155.7655 -155.7655 85.98255 -155.7655 0 C -155.7655 -85.98256 -85.98255 -155.7655 0 -155.7655 z" stroke-linecap="round" />
</g>
</svg>