<svg width="96" height="96" xmlns="http://www.w3.org/2000/svg" xmlns:xlink="http://www.w3.org/1999/xlink" overflow="hidden"><defs><clipPath id="clip0"><rect x="39" y="433" width="96" height="96"/></clipPath></defs><g clip-path="url(#clip0)" transform="translate(-39 -433)"><path d="M81.608 473.625 81.608 473.29C82.0301 462.172 73.359 452.816 62.2407 452.394 51.1224 451.972 41.7671 460.643 41.345 471.762 41.3257 472.271 41.3257 472.781 41.345 473.29 41.3177 479.629 44.2368 485.62 49.245 489.506L49.245 506.459 70.42 508.5 70.42 498.418 73.7 498.418C75.8126 498.414 77.8369 497.571 79.327 496.073 80.7978 494.541 81.6148 492.497 81.605 490.373L81.605 486.353 84.553 486.353C86.295 486.153 87.835 484.141 86.228 481.662ZM72.831 475C71.4503 475 70.331 473.881 70.331 472.5 70.331 471.119 71.4503 470 72.831 470 74.2117 470 75.331 471.119 75.331 472.5 75.331 473.881 74.2117 475 72.831 475Z" fill="#7E20FC"/><path d="M118 472.5C118 473.881 116.881 475 115.5 475 114.119 475 113 473.881 113 472.5 113 471.119 114.119 470 115.5 470 116.881 470 118 471.119 118 472.5Z" fill="#7E20FC"/><path d="M133.331 477.5C133.331 460.112 124.303 447 112.331 447 100.359 447 91.331 460.112 91.331 477.5 91.331 493.905 99.368 506.5 110.331 507.87L110.331 512 105.331 512C104.226 512 103.331 512.895 103.331 514L103.331 518 121.331 518 121.331 514C121.331 512.895 120.436 512 119.331 512L114.331 512 114.331 507.87C125.293 506.5 133.331 493.905 133.331 477.5ZM129.331 477.5C129.331 488.956 124.891 498.491 118.49 502.262L118.49 498.119 115.273 498.119C113.202 498.115 111.218 497.287 109.758 495.819 108.317 494.319 107.516 492.317 107.525 490.237L107.525 486.3 104.636 486.3C102.929 486.1 101.419 484.133 102.995 481.7L107.525 473.819 107.525 473.491C107.143 464.895 112.431 457.061 120.546 454.2 125.822 458.645 129.331 467.315 129.331 477.5Z" fill="#7E20FC"/></g></svg>