<svg width="96" height="96" xmlns="http://www.w3.org/2000/svg" xmlns:xlink="http://www.w3.org/1999/xlink" overflow="hidden"><defs><clipPath id="clip0"><rect x="-12" y="273" width="96" height="96"/></clipPath></defs><g clip-path="url(#clip0)" transform="translate(12 -273)"><path d="M5 284 11 284 11 358 5 358Z" fill="#7E20FC"/><path d="M62 284 15 284 15 358 62 358C64.2 358 66 356.2 66 354L66 288C66 285.8 64.2 284 62 284ZM32.1 312.1C32.1 307.9 35.5 304.5 39.7 304.5 43.9 304.5 47.3 307.9 47.3 312.1 47.3 316.3 43.9 319.7 39.7 319.7 35.5 319.7 32.1 316.4 32.1 312.1ZM55 337 24.4 337 24.4 329.4C24.4 328.2 25 327.1 25.9 326.3 28.2 324.7 30.7 323.4 33.4 322.7 35.5 322.1 37.6 321.8 39.7 321.7 41.8 321.7 44 322 46 322.7 48.7 323.4 51.2 324.6 53.5 326.3 54.4 327 55 328.2 55 329.4L55 337Z" fill="#7E20FC"/></g></svg>