<svg width="96" height="96" xmlns="http://www.w3.org/2000/svg" xmlns:xlink="http://www.w3.org/1999/xlink" overflow="hidden"><defs><clipPath id="clip0"><rect x="79" y="342" width="96" height="96"/></clipPath></defs><g clip-path="url(#clip0)" transform="translate(-79 -342)"><path d="M152 424 102 424 102 362 113 362 113 368 141 368 141 362 152 362ZM127 354C128.657 354 130 355.343 130 357 130 358.657 128.657 360 127 360 125.343 360 124 358.657 124 357 123.973 355.37 125.272 354.027 126.901 354 126.934 353.999 126.967 353.999 127 354ZM154 356 137 356 137 354C137 351.791 135.209 350 133 350L121 350C118.791 350 117 351.791 117 354L117 356 100 356C97.7909 356 96 357.791 96 360L96 426C96 428.209 97.7909 430 100 430L154 430C156.209 430 158 428.209 158 426L158 360C158 357.791 156.209 356 154 356Z" fill="#7E20FC"/><path d="M129 376 146 376 146 380 129 380Z" fill="#7E20FC"/><path d="M129 388 146 388 146 392 129 392Z" fill="#7E20FC"/><path d="M129 400 146 400 146 404 129 404Z" fill="#7E20FC"/><path d="M129 412 146 412 146 416 129 416Z" fill="#7E20FC"/><path d="M108.707 377.8 110.8 375.707 113.4 378.307 120 371.707 122.093 373.8 113.4 382.493 108.707 377.8Z" fill="#7E20FC"/><path d="M108.707 389.8 110.8 387.707 113.4 390.307 120 383.707 122.093 385.8 113.4 394.493 108.707 389.8Z" fill="#7E20FC"/><path d="M108.707 401.8 110.8 399.707 113.4 402.307 120 395.707 122.093 397.8 113.4 406.493 108.707 401.8Z" fill="#7E20FC"/><path d="M108.707 413.8 110.8 411.707 113.4 414.307 120 407.707 122.093 409.8 113.4 418.493 108.707 413.8Z" fill="#7E20FC"/></g></svg>