<svg width="96" height="96" xmlns="http://www.w3.org/2000/svg" xmlns:xlink="http://www.w3.org/1999/xlink" overflow="hidden"><defs><clipPath id="clip0"><rect x="236" y="385" width="96" height="96"/></clipPath></defs><g clip-path="url(#clip0)" transform="translate(-236 -385)"><path d="M291.125 443.329 290.915 443.329C288.899 449.349 284.952 452.358 279.073 452.357 275.551 452.466 272.186 450.9 270 448.137 267.705 445.324 266.557 441.537 266.557 436.778 266.557 430.479 268.132 425.245 271.282 421.078 274.136 417.055 278.801 414.71 283.732 414.821 285.608 414.796 287.444 415.362 288.981 416.438 290.394 417.349 291.447 418.722 291.962 420.322L292.088 420.322C292.172 419.539 292.382 417.929 292.718 415.493L299.689 415.493C298.374 430.272 297.717 437.801 297.717 438.08 297.717 443.623 299.159 446.394 302.043 446.395 304.673 446.395 306.856 444.848 308.593 441.754 310.33 438.66 311.196 434.65 311.193 429.724 311.193 422.445 308.848 416.503 304.159 411.898 299.47 407.293 292.97 404.99 284.659 404.99 277.156 404.789 269.932 407.835 264.838 413.347 259.603 418.916 256.985 425.886 256.985 434.259 256.985 442.518 259.504 449.181 264.543 454.247 269.582 459.313 276.371 461.846 284.91 461.847 290.848 462.006 296.746 460.828 302.168 458.4L302.168 464.867C297.269 466.938 291.152 467.974 283.818 467.975 273.515 467.975 265.215 464.895 258.918 458.736 252.621 452.577 249.471 444.516 249.468 434.553 249.468 424.307 252.799 415.81 259.462 409.063 266.125 402.316 274.635 398.942 284.994 398.943 294.708 398.943 302.749 401.771 309.118 407.426 315.487 413.081 318.671 420.458 318.671 429.556 318.671 436.219 316.942 441.686 313.485 445.956 310.028 450.226 305.808 452.359 300.825 452.356 294.385 452.357 291.152 449.348 291.125 443.329ZM284.448 420.779C281.368 420.779 278.884 422.291 276.995 425.314 275 428.737 274.017 432.655 274.16 436.614 274.021 439.143 274.69 441.651 276.071 443.774 277.216 445.457 279.136 446.446 281.171 446.399 284.25 446.399 286.685 444.81 288.478 441.632 290.271 438.454 291.167 434.247 291.167 429.01 291.167 423.523 288.927 420.78 284.448 420.779Z" fill="#7E20FC"/></g></svg>