<svg width="96" height="96" xmlns="http://www.w3.org/2000/svg" xmlns:xlink="http://www.w3.org/1999/xlink" overflow="hidden"><defs><clipPath id="clip0"><rect x="82" y="394" width="96" height="96"/></clipPath></defs><g clip-path="url(#clip0)" transform="translate(-82 -394)"><path d="M133 480 133 467.8C144.3 466.3 153 456.7 153 445L153 435 147 435 147 445C147 454.4 139.4 462 130 462 120.6 462 113 454.4 113 445L113 435 107 435 107 445C107 456.7 115.7 466.3 127 467.8L127 480 106 480 106 486 154 486 154 480 133 480Z"/><path d="M130 458C137.2 458 143 452.2 143 445L133 445 133 441 143 441 143 435 133 435 133 431 143 431 143 425 133 425 133 421 143 421 143 415 133 415 133 411 143 411C143 403.8 137.2 398 130 398 122.8 398 117 403.8 117 411L117 445C117 452.2 122.8 458 130 458Z"/></g></svg>