<svg width="96" height="96" xmlns="http://www.w3.org/2000/svg" xmlns:xlink="http://www.w3.org/1999/xlink" overflow="hidden"><defs><clipPath id="clip0"><rect x="416" y="318" width="96" height="96"/></clipPath></defs><g clip-path="url(#clip0)" transform="translate(-416 -318)"><path d="M499.89 364.38C499.52 369.597 497.452 374.55 494 378.48L496.62 381.48C506.226 371.03 506.492 355.045 497.24 344.28L494.24 346.86C498.377 351.717 500.41 358.021 499.89 364.38Z"/><path d="M491.91 363.78C491.678 366.879 490.541 369.842 488.64 372.3L491.28 375.37C497.589 367.903 497.504 356.949 491.08 349.58L488.08 352.16C490.854 355.368 492.232 359.551 491.91 363.78Z"/><path d="M430.43 381.52 433.05 378.52C425.127 369.518 425.025 356.061 432.81 346.94L429.81 344.36C420.558 355.125 420.824 371.11 430.43 381.56Z"/><path d="M431.1 364.08C431.398 368.239 433.017 372.195 435.72 375.37L438.36 372.3C433.733 366.306 433.972 357.882 438.93 352.16L435.93 349.58C432.413 353.554 430.669 358.791 431.1 364.08Z"/><path d="M465.82 395.2 465.82 385.77C474.662 384.606 481.271 377.068 481.27 368.15L481.27 360.42 476.64 360.42 476.64 368.15C476.64 375.407 470.757 381.29 463.5 381.29 456.243 381.29 450.36 375.407 450.36 368.15L450.36 360.42 445.73 360.42 445.73 368.15C445.729 377.068 452.338 384.606 461.18 385.77L461.18 395.2 445 395.2 445 399.83 482.1 399.83 482.1 395.2Z"/><path d="M463.5 378.2C469.023 378.2 473.5 373.723 473.5 368.2 473.5 368.183 473.5 368.167 473.5 368.15L465.82 368.15 465.82 365.06 473.55 365.06 473.55 360.42 465.82 360.42 465.82 357.33 473.55 357.33 473.55 352.7 465.82 352.7 465.82 349.61 473.55 349.61 473.55 345 465.82 345 465.82 341.88 473.55 341.88C473.55 336.329 469.051 331.83 463.5 331.83 457.949 331.83 453.45 336.329 453.45 341.88L453.45 368.15C453.422 373.673 457.877 378.172 463.4 378.2 463.433 378.2 463.467 378.2 463.5 378.2Z"/></g></svg>