<svg width="96" height="96" xmlns="http://www.w3.org/2000/svg" xmlns:xlink="http://www.w3.org/1999/xlink" overflow="hidden"><defs><clipPath id="clip0"><rect x="64" y="305" width="96" height="96"/></clipPath></defs><g clip-path="url(#clip0)" transform="translate(-64 -305)"><path d="M128 335C128 343.837 120.837 351 112 351 103.163 351 96 343.837 96 335 96 326.163 103.163 319 112 319 120.837 319 128 326.163 128 335Z" fill="#7E20FC"/><path d="M144 387 144 371C144 368.6 142.8 366.2 140.8 364.6 136.4 361 130.8 358.6 125.2 357 121.2 355.8 116.8 355 112 355 107.6 355 103.2 355.8 98.8 357 93.2 358.6 87.6 361.4 83.2 364.6 81.2 366.2 80 368.6 80 371L80 387 144 387Z" fill="#7E20FC"/></g></svg>