<svg width="96" height="96" xmlns="http://www.w3.org/2000/svg" xmlns:xlink="http://www.w3.org/1999/xlink" overflow="hidden"><defs><clipPath id="clip0"><rect x="27" y="273" width="96" height="96"/></clipPath></defs><g clip-path="url(#clip0)" transform="translate(-27 -273)"><path d="M105 293 88 293 88 288C88 284.1 84.9 281 81 281L69 281C65.1 281 62 284.1 62 288L62 293 45 293C42.8 293 41 294.8 41 297L41 301 109 301 109 297C109 294.8 107.2 293 105 293ZM68 288C68 287.4 68.4 287 69 287L81 287C81.6 287 82 287.4 82 288L82 293 68 293 68 288Z" fill="#7F7F7F"/><path d="M47 357C47 359.2 48.8 361 51 361L99 361C101.2 361 103 359.2 103 357L103 305 47 305 47 357ZM88 311 94 311 94 355 88 355 88 311ZM72 311 78 311 78 355 72 355 72 311ZM56 311 62 311 62 355 56 355 56 311Z" fill="#7F7F7F"/></g></svg>