<svg width="96" height="96" xmlns="http://www.w3.org/2000/svg" xmlns:xlink="http://www.w3.org/1999/xlink" overflow="hidden"><defs><clipPath id="clip0"><rect x="64" y="529" width="96" height="96"/></clipPath></defs><g clip-path="url(#clip0)" transform="translate(-64 -529)"><path d="M106 556 122 556 122 553C122 550.8 120.2 549 118 549L76 549C73.8 549 72 550.8 72 553L72 580C72 582.2 73.8 584 76 584L82 584 82 594 92 584 98 584 98 564C98 559.6 101.6 556 106 556Z" fill="#7E20FC"/><path d="M148 560 106 560C103.8 560 102 561.8 102 564L102 591C102 593.2 103.8 595 106 595L132 595 142 605 142 595 148 595C150.2 595 152 593.2 152 591L152 564C152 561.8 150.2 560 148 560Z" fill="#7E20FC"/></g></svg>