<svg width="96" height="96" xmlns="http://www.w3.org/2000/svg" xmlns:xlink="http://www.w3.org/1999/xlink" overflow="hidden"><defs><clipPath id="clip0"><rect x="310" y="481" width="96" height="96"/></clipPath></defs><g clip-path="url(#clip0)" transform="translate(-310 -481)"><path d="M395 524.3 401 524.3 401 533.6 395 533.6Z" fill="#7E20FC"/><path d="M375 524.3 381 524.3 381 533.6 375 533.6Z" fill="#7E20FC"/><path d="M315 524.3 321 524.3 321 533.6 315 533.6Z" fill="#7E20FC"/><path d="M385 519.7 391 519.7 391 538.4 385 538.4Z" fill="#7E20FC"/><path d="M365 519.7 371 519.7 371 538.4 365 538.4Z" fill="#7E20FC"/><path d="M325 519.7 331 519.7 331 538.4 325 538.4Z" fill="#7E20FC"/><path d="M355 515 361 515 361 543 355 543Z" fill="#7E20FC"/><path d="M335 510.3 341 510.3 341 547.6 335 547.6Z" fill="#7E20FC"/><path d="M345 501 351 501 351 557 345 557Z" fill="#7E20FC"/></g></svg>