<svg width="96" height="96" xmlns="http://www.w3.org/2000/svg" xmlns:xlink="http://www.w3.org/1999/xlink" overflow="hidden"><defs><clipPath id="clip0"><rect x="355" y="307" width="96" height="96"/></clipPath></defs><g clip-path="url(#clip0)" transform="translate(-355 -307)"><path d="M403 317C382 317 365 334 365 355 365 376 382 393 403 393 424 393 441 376 441 355 441 334 424 317 403 317ZM369 355C369 346.1 372.4 338.1 378 332 378.9 332.5 379.8 333.3 380 334L380 340.3C380 340.7 380.1 341.2 380.4 341.5L387 350 387.5 349.5C387.8 349.2 387.9 348.7 387.7 348.3L386.5 346.3C386 345.5 386.8 344.5 387.7 344.8 388 344.9 388.2 345.1 388.3 345.3L391.6 351.8C392 352.5 392.6 353.1 393.3 353.3L397.7 354.8C398 354.9 398.2 355.1 398.3 355.3L398.6 355.8C398.9 356.5 399.6 356.9 400.4 356.9L401.6 356.9C401.9 356.9 402.2 357.1 402.4 357.3L403.7 359.2C404 359.6 404.4 359.9 404.9 360L407 360.5C407.6 360.6 407.9 361.3 407.7 361.8 407.7 361.8 406.1 363.4 406.1 365.7 406.1 372.3 412.1 374.2 412.1 375.7 412.1 379.8 411.5 385.5 411.2 387.7 408.6 388.3 405.9 388.7 403.1 388.7 384.3 389 369 373.7 369 355ZM415.8 386.5C418 384.6 421.7 381.4 423 380 424.7 378.1 425 375 425 375 425 375 432 373.1 432 368 432 364.5 425 363 425 363 423.8 359.1 417.9 357 413 357 411.9 357 408 359 408 359L406 358 406 355C406 354.4 405.6 354 405 354L403 354 403 351C403 350.4 402.6 350 402 350L401 350 399.9 350.7C398.9 351.4 397.5 351 397 349.9 397 349.9 396 348.5 396 347.9 396 343.6 401 343.9 401 343.9L403.2 343.9C403.7 343.9 404.1 344.2 404.2 344.7L404.8 347.2C404.9 347.6 405.3 348 405.8 348L406.2 348C406.7 348 407.1 347.7 407.2 347.2L407.9 343.5C408 343.2 408.1 342.9 408.3 342.6L411.1 339.1C411.7 338.4 412.5 338 413.4 338L416 338C416.6 338 417 337.6 417 337L417 336 416.7 335.7C416.1 335.1 416.5 334 417.4 334L418 334C418.6 334 419 334.4 419 335 419 335.6 419.4 336 420 336L421 336 421.6 333.4C421.8 332.5 421.4 331.7 420.7 331.2L412.2 326.1C412.1 326 411.9 326 411.7 326L410 326C408.9 326 408 326.9 408 328L408 329C408 329.6 407.6 330 407 330L406 330 405 329 402 329C401.4 329 401 328.6 401 328L401 325.5C401 325.2 401.1 324.9 401.4 324.7L407.8 322 408.8 323.7C409 323.9 409.2 324 409.5 324L412 324C412.6 324 413 323.6 413 323L413 322.5C426.9 326.8 437 339.7 437 355 437 369.2 428.2 381.4 415.8 386.5Z" fill="#7E20FC"/><path d="M415.3 350.8 410.5 349.2C410.1 349.1 409.8 349.1 409.4 349.2L406 350C405.7 350.2 405.6 350.6 406 351L410.6 351C410.9 351 411.1 351 411.3 351.1L414.8 352.5C415.4 352.7 416 352.3 416 351.7 416 351.3 415.7 350.9 415.3 350.8Z" fill="#7E20FC"/></g></svg>